<svg xmlns="http://www.w3.org/2000/svg" width="32" height="32" viewBox="0 0 32 32">
  <g id="Info" transform="translate(-205.6 -357.5)">
    <rect id="Rectangle_2714" width="32" height="32" transform="translate(205.6 357.5)" fill="none"/>
    <g id="Group_9511" data-name="Group 9511" transform="translate(216.6 361.495)">
      <g id="Group_3210" data-name="Group 3210">
        <path id="Path_4738" data-name="Path 4738" d="M231.6,393.318v-1.5a6.476,6.476,0,0,0,1.789-.577c.346-.173.577-.4.577-.577V380.216a1.2,1.2,0,0,0-.231-.866,1.06,1.06,0,0,0-.693-.462,6.828,6.828,0,0,0-1.443-.231v-1.443a21.9,21.9,0,0,0,3.117-.519,24.673,24.673,0,0,0,2.77-.75h1.327V390.72c0,.115.173.346.519.52a5.784,5.784,0,0,0,1.847.577v1.5Zm7.907-22.74a2.43,2.43,0,0,1-.231,1.154,2.556,2.556,0,0,1-.693.866,3.028,3.028,0,0,1-1.039.577,4.915,4.915,0,0,1-1.327.173,6.352,6.352,0,0,1-1.039-.115,2.008,2.008,0,0,1-.866-.4,2.216,2.216,0,0,1-.635-.635,1.693,1.693,0,0,1-.231-.923,2.441,2.441,0,0,1,.289-1.154,2.554,2.554,0,0,1,.693-.866,4.435,4.435,0,0,1,1.039-.577,4.916,4.916,0,0,1,1.327-.173,6.358,6.358,0,0,1,1.039.115,1.953,1.953,0,0,1,.866.346,3.31,3.31,0,0,1,.635.635,2.7,2.7,0,0,1,.173.977Z" transform="translate(-231.6 -368.5)" fill="#888"/>
      </g>
    </g>
  </g>
</svg>
